<svg width="118" height="28" viewBox="0 0 118 28" fill="none" xmlns="http://www.w3.org/2000/svg">
<path fill-rule="evenodd" clip-rule="evenodd" d="M12.174 11.3761C10.8069 12.6539 9.88782 14.3469 9.65455 16.2364L17.3935 16.2816C17.6727 16.2814 17.944 16.2528 18.2062 16.1993L18.2109 16.1984C19.9327 15.8562 21.2314 14.444 21.276 12.74V12.6507C21.276 11.6481 20.843 10.7414 20.1391 10.0813C19.6165 9.59509 18.9512 9.24757 18.2089 9.09937L18.2039 9.09836L18.1988 9.09727C17.9532 9.04558 17.6927 9.01841 17.4203 9.01649C15.3803 9.22854 13.5508 10.0894 12.174 11.3761Z" fill="url(#paint0_linear_530_1303)"/>
<path fill-rule="evenodd" clip-rule="evenodd" d="M2.54564 2.37709C4.11585 0.907653 6.28445 0.000713535 8.68207 0L17.388 0.0519783H17.3908C19.5382 0.0519783 21.2784 1.67772 21.2784 3.68402C21.2784 4.84406 20.698 5.87657 19.7902 6.54287C19.1297 7.02655 18.2985 7.31544 17.3935 7.31608H17.3908L8.68941 7.26513H8.68373C7.30011 7.26513 5.97875 7.51541 4.76874 7.97025C4.19238 8.18678 3.64136 8.44969 3.12101 8.75413C2.44445 9.14978 1.81954 9.61549 1.25794 10.1402L1.25772 10.1404L1.2575 10.1407C0.792809 10.5744 0.371439 11.0489 0 11.5579V8.11533C0 5.87377 0.970463 3.84716 2.54477 2.37791L2.5452 2.3775L2.54564 2.37709Z" fill="url(#paint1_linear_530_1303)"/>
<path fill-rule="evenodd" clip-rule="evenodd" d="M0 17.0819C0 14.8402 0.970551 12.8126 2.54477 11.3434L2.5452 11.343L2.54564 11.3426C3.01921 10.8994 3.54721 10.5074 4.11951 10.176C5.44479 9.40847 7.00763 8.96599 8.68217 8.96544H8.68491L12.4174 8.98731C11.8672 9.33804 11.3543 9.7356 10.8853 10.1739C9.19303 11.7554 8.01762 13.7771 7.77525 16.1355V16.2306V17.0763V18.0338V17.9257V25.1523C3.40663 24.7283 0.000616683 21.277 0 17.0819Z" fill="url(#paint2_linear_530_1303)"/>
<path d="M35.7115 6.5926V8.80631H39.1895V11.4888H35.7115V22.375H32.6348V11.4888H30.7085V8.80631H32.6348V6.09777C32.6348 4.66537 33.2769 2.37354 36.5141 2.37354C37.6378 2.37354 38.6277 2.47771 39.4838 2.68606L38.9755 5.31646C38.2531 5.21229 37.6378 5.1602 37.1562 5.1602C36.1931 5.1602 35.7115 5.62899 35.7115 6.5926Z" fill="white"/>
<path d="M49.9707 8.67609V11.619C48.1247 11.619 46.4124 11.9576 44.8607 12.6347V22.375H41.784V8.80631H44.5397L44.7269 10.1085C46.573 9.14487 48.3387 8.67609 49.9707 8.67609Z" fill="white"/>
<path d="M55.4377 6.64469C54.7154 7.34787 53.3777 7.34787 52.6285 6.64469C52.2807 6.28008 52.0935 5.81129 52.0935 5.23833C52.0935 4.66537 52.2807 4.19659 52.6285 3.85802C53.3777 3.15484 54.7154 3.15484 55.4377 3.85802C56.1868 4.5612 56.1868 5.91547 55.4377 6.64469ZM55.5715 22.375H52.4948V8.80631H55.5715V22.375Z" fill="white"/>
<path d="M70.6906 10.0824C71.2257 10.395 71.4932 10.9419 71.4932 11.6971V22.3229C71.4932 26.1774 69.6204 28.0005 65.6609 28.0005C63.6543 28.0005 61.835 27.6879 60.1763 27.0629L61.0859 24.771C62.5574 25.2398 64.0021 25.4742 65.3933 25.4742C67.5336 25.4742 68.4165 24.6669 68.4165 22.4792V22.1146C67.1323 22.4011 66.0354 22.5573 65.099 22.5573C63.1192 22.5573 61.4872 21.9062 60.2298 20.6301C58.9724 19.354 58.3303 17.6611 58.3303 15.6037C58.3303 13.5462 58.9724 11.8534 60.2298 10.5773C61.4872 9.27509 63.1192 8.624 65.099 8.624C67.2928 8.624 69.1656 9.11883 70.6906 10.0824ZM65.2595 19.979C66.2762 19.979 67.3196 19.8228 68.4165 19.5102V11.8795C67.3999 11.4628 66.3565 11.2544 65.2595 11.2544C62.9052 11.2544 61.3802 13.0514 61.3802 15.6297C61.3802 18.2341 62.9052 19.979 65.2595 19.979Z" fill="white"/>
<path d="M81.2778 8.624C84.5953 8.624 86.2541 10.4991 86.2541 14.2494V22.375H83.4717L83.3111 21.2552C82.0002 22.1406 80.502 22.5834 78.763 22.5834C76.0073 22.5834 74.2683 21.177 74.2683 18.8852C74.2683 16.1767 76.9972 14.5619 81.7059 14.5619C82.0002 14.5619 82.8028 14.588 83.1506 14.588V14.2234C83.1506 12.0618 82.4015 11.1242 80.716 11.1242C79.2445 11.1242 77.5858 11.4628 75.7933 12.1399L74.7766 9.97827C76.9972 9.06674 79.1643 8.624 81.2778 8.624ZM77.2647 18.781C77.2647 19.6925 78.0139 20.2655 79.4853 20.2655C80.6357 20.2655 82.2142 19.7967 83.1506 19.1717V16.7236H82.1875C78.8967 16.7236 77.2647 17.4007 77.2647 18.781Z" fill="white"/>
<path d="M98.985 9.06674V3.02462H102.062V19.5102C102.062 20.2655 101.794 20.7864 101.259 21.1249C99.7073 22.0886 97.8346 22.5573 95.6675 22.5573C93.6877 22.5573 92.0557 21.9062 90.7983 20.6301C89.5408 19.3279 88.8987 17.6611 88.8987 15.6037C88.8987 13.5462 89.5408 11.8534 90.7983 10.5773C92.0557 9.27509 93.6877 8.624 95.6675 8.624C96.6039 8.624 97.7008 8.78026 98.985 9.06674ZM95.828 19.9269C96.9249 19.9269 97.9683 19.7186 98.985 19.3019V11.6711C97.8881 11.3586 96.8447 11.2023 95.828 11.2023C93.4737 11.2023 91.9487 12.9472 91.9487 15.5516C91.9487 18.156 93.4737 19.9269 95.828 19.9269Z" fill="white"/>
<path d="M117.998 15.9683V16.9059H108.019C108.421 18.9633 109.892 20.1353 112.006 20.1353C113.343 20.1353 114.788 19.8228 116.34 19.1717L117.356 21.3593C115.457 22.1667 113.584 22.5834 111.738 22.5834C109.705 22.5834 108.046 21.9323 106.789 20.6562C105.531 19.354 104.889 17.6611 104.889 15.6037C104.889 13.5202 105.531 11.8274 106.789 10.5512C108.046 9.27509 109.678 8.624 111.685 8.624C113.798 8.624 115.377 9.32718 116.42 10.7075C117.463 12.0878 117.998 13.8327 117.998 15.9683ZM107.939 14.7182H115.136C114.949 12.4264 113.798 11.02 111.685 11.02C109.571 11.02 108.233 12.5045 107.939 14.7182Z" fill="white"/>
<defs>
<linearGradient id="paint0_linear_530_1303" x1="0" y1="0" x2="20.8054" y2="25.5378" gradientUnits="userSpaceOnUse">
<stop offset="0.317176" stop-color="#298AFE"/>
<stop offset="1" stop-color="#004CE0"/>
</linearGradient>
<linearGradient id="paint1_linear_530_1303" x1="0" y1="0" x2="20.8054" y2="25.5378" gradientUnits="userSpaceOnUse">
<stop offset="0.317176" stop-color="#298AFE"/>
<stop offset="1" stop-color="#004CE0"/>
</linearGradient>
<linearGradient id="paint2_linear_530_1303" x1="0" y1="0" x2="20.8054" y2="25.5378" gradientUnits="userSpaceOnUse">
<stop offset="0.317176" stop-color="#298AFE"/>
<stop offset="1" stop-color="#004CE0"/>
</linearGradient>
</defs>
</svg>
