<svg width="97" height="38" viewBox="0 0 97 38" fill="none" xmlns="http://www.w3.org/2000/svg">
<path d="M59.24 26H56.45L55.64 23.66H50.456L49.646 26H46.91L51.41 13.4H54.74L59.24 26ZM52.994 16.37L51.266 21.32H54.812L53.084 16.37H52.994ZM64.5528 26.18C61.6728 26.18 59.8728 24.38 59.8728 21.23C59.8728 18.08 61.6728 16.28 64.5528 16.28C67.2528 16.28 68.5128 17.9 68.9628 19.7H66.4428C66.0828 18.98 65.5428 18.53 64.5528 18.53C63.2928 18.53 62.3928 19.43 62.3928 21.23C62.3928 23.03 63.2928 23.93 64.5528 23.93C65.5428 23.93 66.0828 23.48 66.4428 22.76H68.9628C68.5128 24.56 67.2528 26.18 64.5528 26.18ZM73.4684 26H70.9484V16.46H73.1084L73.3784 17.54H73.4684C74.0084 16.73 74.7284 16.28 75.7184 16.28C76.8524 16.28 77.8604 16.874 78.3284 17.81H78.4184C78.8684 16.928 80.0744 16.28 81.2984 16.28C83.3684 16.28 84.8084 17.72 84.8084 20.06V26H82.2884V20.42C82.2884 19.07 81.5684 18.53 80.6684 18.53C79.8584 18.53 79.1384 19.16 79.1384 20.42V26H76.6184V20.42C76.6184 19.07 75.8984 18.53 74.9984 18.53C74.1884 18.53 73.4684 19.16 73.4684 20.42V26ZM96.0542 21.05C96.0542 21.446 96.0002 21.842 95.9642 22.04H89.3762C89.5922 23.282 90.2222 24.02 91.4642 24.02C92.4542 24.02 92.8142 23.624 93.1742 23.03H95.8742C95.4242 24.65 94.1642 26.18 91.4642 26.18C88.5842 26.18 86.7842 24.38 86.7842 21.23C86.7842 18.08 88.5842 16.28 91.4642 16.28C94.2542 16.28 96.0542 18.26 96.0542 21.05ZM89.3762 20.24H93.5882C93.4262 19.394 92.7422 18.44 91.4642 18.44C90.3842 18.44 89.6102 19.124 89.3762 20.24Z" fill="#0F1114"/>
<path d="M32.0985 27.3551L34.9579 24.5144M3 14.4882L9.11826 8.43081M14.3535 3V3.20888M24.4455 34.9582L24.3193 34.8747M3.2523 24.6815L3.29435 24.6397M7.35217 31.0313L13.1761 25.2663M8.97109 19L24.5926 3.45953M13.8699 35L35 14.0078M18.8528 19.6266L31.0053 7.55352" stroke="url(#paint0_linear_258_895)" stroke-width="4.5" stroke-miterlimit="3" stroke-linecap="round"/>
<defs>
<linearGradient id="paint0_linear_258_895" x1="7.01042" y1="5.85376" x2="34.7056" y2="34.9755" gradientUnits="userSpaceOnUse">
<stop stop-color="#FF650F"/>
<stop offset="1" stop-color="#F70076"/>
</linearGradient>
</defs>
</svg>
